# xmcd CD database file
#
# Track frame offsets:
#	150
#	18060
#	47425
#	72384
#	86434
#	100966
#	118254
#	136426
#	166843
#	191106
#	212738
#	232913
#
# Disc length: 3690 seconds
#
# Revision: 0
# Processed by: cddbd v1.5.2PL0 Copyright (c) Steve Scherf et al.
# Submitted via: CDex 1.81
#
DISCID=9d0e680c
DTITLE=Ther Oriental Jazzband - feat. Menno Bruin and Anne-Marije Kouwenthoven
DYEAR=2006
DGENRE=Jazz
TTITLE0=On the Road again
TTITLE1=High Society
TTITLE2=Sweet Lorraine
TTITLE3=Soon it will be done
TTITLE4=San Francisco Bay Blues
TTITLE5=Ciribiribin
TTITLE6=Royal Telephone
TTITLE7=Frog-I-More Rag
TTITLE8=A Fool such as I
TTITLE9=Dreaming the Hours away
TTITLE10=My blue Heaven
TTITLE11=In the wee small Hours
EXTD=YEAR: 2006
EXTT0=
EXTT1=
EXTT2=
EXTT3=
EXTT4=
EXTT5=
EXTT6=
EXTT7=
EXTT8=
EXTT9=
EXTT10=
EXTT11=
PLAYORDER=
